<svg width="672" height="672" viewBox="0 0 672 672" fill="none" xmlns="http://www.w3.org/2000/svg">
<g clip-path="url(#clip0_2_192)">
<path d="M336 0C150.453 0 0 150.453 0 336C0 521.547 150.453 672 336 672C521.547 672 672 521.547 672 336C672 150.453 521.547 0 336 0ZM336 623.467C175.467 623.467 44.8 492.8 44.8 332.267C44.8 218.403 110.508 119.547 206 71.76C150.073 129.552 115.729 208.173 115.729 294.933C115.729 462.333 243.781 599.72 407.223 614.653C384.447 620.403 360.556 623.461 335.988 623.461L336 623.467ZM528.787 255.213C526.323 256.406 523.782 256.932 521.318 256.932C514.964 256.932 508.849 253.349 505.859 247.224C489.953 214.145 464.87 186.521 433.359 167.479C425.297 162.624 422.682 152.099 427.604 143.957C432.458 135.895 442.995 133.28 451.125 138.207C488.308 160.681 517.875 193.238 536.765 232.363C540.88 240.879 537.297 251.109 528.786 255.213H528.787Z" fill="url(#paint0_linear_2_192)"/>
</g>
<defs>
<linearGradient id="paint0_linear_2_192" x1="562.5" y1="566.5" x2="-767" y2="1250.5" gradientUnits="userSpaceOnUse">
<stop stop-color="#843CC3"/>
<stop offset="1" stop-color="#5F1EBE"/>
</linearGradient>
<clipPath id="clip0_2_192">
<rect width="672" height="672" fill="white"/>
</clipPath>
</defs>
</svg>
